<svg xmlns="http://www.w3.org/2000/svg" width="100" height="100" viewBox="0 0 100 100" fill="none">
  <rect width="100" height="100" fill="#f0f0f0"/>
  <path d="M35 65C32.2386 65 30 67.2386 30 70C30 72.7614 32.2386 75 35 75C37.7614 75 40 72.7614 40 70C40 67.2386 37.7614 65 35 65ZM65 65C62.2386 65 60 67.2386 60 70C60 72.7614 62.2386 75 65 75C67.7614 75 70 72.7614 70 70C70 67.2386 67.7614 65 65 65ZM25 25H75L69 55H31L25 25ZM20 20L28 60H72L80 20H20Z" fill="#4B5563"/>
  <text x="50" y="40" font-family="Arial" font-size="8" text-anchor="middle" fill="#4B5563">Smart Shopper</text>
</svg>